<svg width="36" height="36" viewBox="0 0 36 36" fill="none" xmlns="http://www.w3.org/2000/svg">
<path d="M35.7238 18.0001C35.7238 8.21139 27.7887 0.276245 18 0.276245C8.21133 0.276245 0.276184 8.21139 0.276184 18.0001C0.276184 27.7887 8.21133 35.7239 18 35.7239C27.7887 35.7239 35.7238 27.7887 35.7238 18.0001ZM15.2233 25.0211L10.0003 19.0359C9.97741 19.0099 9.96126 18.9804 9.94039 18.9528C9.91203 18.9158 9.88367 18.8796 9.85886 18.8402C9.82932 18.7937 9.8049 18.7453 9.78087 18.6964C9.76157 18.6574 9.74109 18.6196 9.72494 18.579C9.70249 18.5223 9.68674 18.464 9.67098 18.4057C9.66114 18.3691 9.64853 18.3345 9.64144 18.2966C9.62254 18.1986 9.61151 18.0993 9.61151 17.9997C9.61151 17.9 9.62254 17.8008 9.64144 17.7027C9.64853 17.6653 9.66114 17.6306 9.67098 17.594C9.68674 17.5353 9.70249 17.4774 9.72494 17.4203C9.74109 17.3797 9.76157 17.3419 9.78087 17.3029C9.8049 17.2541 9.82932 17.206 9.85886 17.1596C9.88406 17.1202 9.91203 17.0835 9.94039 17.0465C9.96126 17.0193 9.97741 16.9898 10.0003 16.9638L15.2233 10.9791C15.7952 10.3233 16.7904 10.2559 17.4462 10.8278C18.102 11.4001 18.1694 12.395 17.5975 13.0508L14.6529 16.4246H24.8122C25.6823 16.4246 26.3877 17.13 26.3877 18.0001C26.3877 18.8701 25.6823 19.5755 24.8122 19.5755H14.6529L17.5971 22.9493C18.1694 23.6047 18.1012 24.5996 17.4458 25.1723C16.7904 25.745 15.7952 25.6768 15.2233 25.0211Z" fill="#003366"/>
</svg>
